<svg id="Capa_1" enable-background="new 0 0 512 512" height="512" viewBox="0 0 512 512" width="512" xmlns="http://www.w3.org/2000/svg"><g><path d="m452.97 0c-7.36 0-379.819 0-393.94 0-32.549 0-59.03 26.481-59.03 59.03v251.965c0 4.142 3.358 7.5 7.5 7.5 4.143 0 7.5-3.358 7.5-7.5v-47.495h109.25v109.25h-109.25v-31.755c0-4.142-3.357-7.5-7.5-7.5-4.142 0-7.5 3.358-7.5 7.5v111.975c0 32.55 26.481 59.03 59.03 59.03h393.94c32.549 0 59.03-26.48 59.03-59.03v-254.258c0-4.142-3.358-7.5-7.5-7.5s-7.5 3.358-7.5 7.5v49.788h-109.25v-109.25h109.25v29.461c0 4.142 3.358 7.5 7.5 7.5s7.5-3.358 7.5-7.5v-109.681c0-32.549-26.48-59.03-59.03-59.03zm-437.97 139.25h109.25v109.25h-109.25zm233.5 109.25h-109.25v-109.25h109.25zm-109.25 15h109.25v109.25h-109.25zm124.25 0h109.25v109.25h-109.25zm124.25 0h109.25v109.25h-109.25zm-15-15h-109.25v-109.25h109.25zm0-124.25h-109.25v-109.25h109.25zm-124.25 0h-109.25v-109.25h109.25zm-233.5-65.22c0-24.278 19.752-44.03 44.03-44.03h65.22v109.25h-109.25zm0 393.94v-65.22h109.25v109.25h-65.22c-24.278 0-44.03-19.751-44.03-44.03zm124.25-65.22h109.25v109.25h-109.25zm124.25 0h109.25v109.25h-109.25zm233.5 65.22c0 24.278-19.752 44.03-44.03 44.03h-65.22v-109.25h109.25zm0-328.72h-109.25v-109.25h65.22c24.279 0 44.03 19.752 44.03 44.03z"/></g></svg>